<svg xmlns="http://www.w3.org/2000/svg" xmlns:xlink="http://www.w3.org/1999/xlink" xmlns:inkscape="http://www.inkscape.org/namespaces/inkscape" version="1.1" width="2776.73" height="2331.32" viewBox="0 0 2776.73 2331.32">
<defs>
<clipPath id="clip_0">
<path transform="matrix(1,0,0,-1,0,2331.32)" d="M0 2331.315H2776.729V0H0Z"/>
</clipPath>
</defs>
<rect width="2776.73" height="2331.32" fill="#ffffff"/>
<g inkscape:groupmode="layer" inkscape:label="Layer 1">
<g clip-path="url(#clip_0)">
<path transform="matrix(1,0,0,-1,809.1396,1868.5838)" d="M0 0V-259.942H-117.889V-76.742C-117.889-58.894-118.327-43.708-119.194-31.187-120.067-18.67-122.46-8.491-126.379-.653-130.298 7.184-136.232 12.898-144.177 16.491-152.126 20.083-163.28 21.879-177.649 21.879-189.19 21.879-200.401 19.537-211.285 14.858-222.174 10.174-231.971 5.225-240.675 0V-259.942H-358.563V106.785H-240.675V66.291C-220.454 82.181-201.101 94.59-182.619 103.52-164.138 112.443-143.702 116.908-121.302 116.908-97.167 116.908-75.859 111.521-57.378 100.743-38.896 89.967-24.441 74.129-14.001 53.229 9.476 73.037 32.299 88.604 54.475 99.927 76.649 111.244 98.387 116.908 119.694 116.908 159.26 116.908 189.313 105.04 209.855 81.313 230.398 57.581 240.675 23.399 240.675-21.227V-259.942H122.786V-76.742C122.786-58.674 122.404-43.433 121.644-31.023 120.878-18.614 118.541-8.491 114.623-.653 110.918 7.184 105.04 12.898 96.988 16.491 88.932 20.083 77.609 21.879 63.026 21.879 53.229 21.879 43.646 20.19 34.289 16.817 24.926 13.439 13.496 7.837 0 0" fill="#4f5050"/>
<path transform="matrix(1,0,0,-1,1388.784,2034.4763)" d="M0 0C7.618 9.357 13.333 20.624 17.145 33.799 20.951 46.968 22.859 65.199 22.859 88.497 22.859 110.051 20.899 128.118 16.981 142.706 13.063 157.289 7.618 168.938 .653 177.648-6.317 186.572-14.695 192.885-24.492 196.589-34.289 200.288-44.852 202.141-56.169 202.141-67.491 202.141-77.559 200.615-86.375 197.568-95.192 194.518-103.632 188.425-111.684 179.281-118.868 170.791-124.583 159.142-128.828 144.339-133.073 129.532-135.196 110.918-135.196 88.497-135.196 68.465-133.349 51.106-129.645 36.411-125.945 21.716-120.501 9.903-113.316 .979-106.352-7.512-98.024-13.716-88.335-17.635-78.65-21.554-67.598-23.513-55.188-23.513-44.524-23.513-34.345-21.717-24.655-18.124-14.971-14.532-6.751-8.491 0 0M144.666 89.15C144.666 28.844 127.083-18.671 91.927-53.393 56.766-88.121 7.398-105.479-56.169-105.479-119.74-105.479-169.107-88.121-204.264-53.393-239.425-18.671-257.003 28.844-257.003 89.15-257.003 149.891-239.318 197.568-203.937 232.184-168.562 266.8-119.307 284.107-56.169 284.107 7.837 284.107 57.312 266.687 92.253 231.857 127.195 197.022 144.666 149.452 144.666 89.15" fill="#4f5050"/>
<path transform="matrix(1,0,0,-1,1986.0634,2128.5262)" d="M0 0H-117.889V181.895C-117.889 196.696-118.654 211.448-120.175 226.144-121.7 240.838-124.313 251.666-128.012 258.636-132.369 266.687-138.737 272.565-147.116 276.271-155.499 279.97-167.199 281.821-182.221 281.821-192.891 281.821-203.723 280.076-214.714 276.597-225.71 273.111-237.629 267.561-250.472 259.942V0H-368.36V366.728H-250.472V326.233C-229.603 342.562-209.545 355.078-190.304 363.788-171.062 372.493-149.697 376.851-126.216 376.851-86.646 376.851-55.72 365.309-33.432 342.235-11.145 319.156 0 284.648 0 238.716Z" fill="#4f5050"/>
<path transform="matrix(1,0,0,-1,2328.625,2125.2967)" d="M0 0C-12.629-3.255-26.018-5.801-40.167-7.648-54.321-9.49-71.629-10.414-92.09-10.414-137.809-10.414-171.827-1.163-194.14 17.344-216.458 35.846-227.612 67.521-227.612 112.373V283.817H-275.943V363.498H-227.612V468.323H-109.725V363.498H0V283.817H-109.725V153.647C-109.725 140.778-109.617 129.553-109.397 119.96-109.184 110.367-107.443 101.755-104.188 94.121-101.152 86.488-95.779 80.441-88.074 75.972-80.369 71.502-69.134 69.267-54.372 69.267-48.3 69.267-40.325 70.573-30.446 73.186-20.568 75.798-13.675 78.191-9.767 80.37H0Z" fill="#4f5050"/>
<path transform="matrix(1,0,0,-1,.1382,1565.8904)" d="M0 0C945.44 1132.559 1821.942 1487.099 2757.534 1467.402 1871.184 1378.767 925.744 718.929 320.713 0Z" fill="#256eb6"/>
<path transform="matrix(1,0,0,-1,128.1665,1280.2886)" d="M0 0 581.052 1280.284H894.058L1073.469 866.654C991.085 830.155 912.368 784.01 837.109 728.777L728.777 965.137 536.734 512.542C344.151 351.866 163.44 182.358 0 0" fill="#256eb6"/>
<path transform="matrix(1,0,0,-1,1388.7537,325)" d="M0 0V312.579C405.542 319.393 837.109 344.692 1004.53 285.602 630.294 226.512 305.298 157.573 0 0" fill="#4f5050"/>
<path transform="matrix(1,0,0,-1,2570.5543,206.81983)" d="M0 0C295.45-324.995 374.237-1181.801-461.588-1359.071H-1147.545L-1378.767-866.654C-1551.875-938.857-1837.595-1136.372-2137.089-1349.222-1848.655-1010.815-1542.705-740.881-1221.194-531.81L-965.137-1103.014H-521.962C-19.697-1034.075 88.635-374.237-364.389-98.483Z" fill="#4f5050"/>
<path transform="matrix(1,0,0,-1,1467.5404,669.6918)" d="M0 0 187.118 128.028V-439.75Z" fill="#4f5050"/>
<path transform="matrix(1,0,0,-1,0,1955.2158)" d="M0 0V0H256.915V-79.26H79.26C35.486-79.26 0-43.774 0 0" fill="#256eb6"/>
<path transform="matrix(1,0,0,-1,2519.8184,2034.4762)" d="M0 0V79.26H256.911C256.911 35.486 221.425 0 177.65 0Z" fill="#256eb6"/>
</g>
</g>
</svg>
